Coordinates
version=1
nRows=9
nColumns=36
inDegrees=yes

Units are S.I. units (second, meters, Newtons, ...)
If the header above contains a line with 'inDegrees', this indicates whether rotational values are in degrees (yes) or radians (no).

endheader
time	pelvis_tilt	pelvis_list	pelvis_rotation	pelvis_tx	pelvis_ty	pelvis_tz	hip_flexion_r	hip_adduction_r	hip_rotation_r	knee_angle_r	knee_angle_r_beta	ankle_angle_r	subtalar_angle_r	mtp_angle_r	hip_flexion_l	hip_adduction_l	hip_rotation_l	knee_angle_l	knee_angle_l_beta	ankle_angle_l	subtalar_angle_l	mtp_angle_l	lumbar_extension	lumbar_bending	lumbar_rotation	arm_flex_r	arm_add_r	arm_rot_r	elbow_flex_r	pro_sup_r	arm_flex_l	arm_add_l	arm_rot_l	elbow_flex_l	pro_sup_l
      4.13750000	    -10.21724551	     -0.21589984	      2.78767075	      0.34896119	      0.89939035	     -0.04244661	     11.24289432	      2.67027207	     -5.15909720	      0.34467846	      0.00601577	      0.63426448	    -10.67730220	     -7.49999987	     15.43500537	     -3.05035078	     -0.08869622	      4.92568407	      0.08596941	     -0.33642625	     -5.17056024	     -7.49999987	     -8.22651839	     -1.02443583	      3.43021135	     -8.10846176	    -15.35126552	     19.84818586	     45.10297109	     64.38710801	    -10.02157088	    -14.37535552	     19.63251187	     39.86848702	     59.33570016
      4.14166670	    -10.17500199	     -0.23429955	      2.84338408	      0.34881718	      0.90271183	     -0.04264547	     11.25177714	      2.71212509	     -5.30175839	      0.34014422	      0.00593664	      0.57261426	    -10.54725044	     -7.49999987	     15.51793281	     -3.12164924	     -0.09037265	      5.05377937	      0.08820509	     -0.39165485	     -5.10578115	     -7.49999987	     -8.48513372	     -1.07620757	      3.38003847	     -7.97696685	    -15.18078869	     19.70538089	     44.97950515	     64.30725584	     -9.89579308	    -14.50260798	     19.77414310	     39.61742379	     59.24080008
      4.14583330	    -10.36365863	     -0.25195913	      2.91336451	      0.34878928	      0.89986128	     -0.04312984	     11.51389779	      2.71400670	     -5.27345354	      0.33966245	      0.00592823	      0.39995046	    -10.80397249	     -7.49999987	     15.88297826	     -3.12510530	      0.11023250	      5.23914133	      0.09144027	     -0.68826054	     -5.56877756	     -7.49999987	     -8.36696415	     -1.12587792	      3.44795888	     -8.00211673	    -15.11131380	     19.86003678	     44.82532692	     64.53407950	     -9.66570356	    -14.51832089	     20.60704545	     38.86789096	     59.03306602
      4.15000000	    -10.39392997	     -0.26103604	      2.95934254	      0.35051471	      0.89907438	     -0.04381806	     11.54835144	      2.69394532	     -5.28425994	      0.34541359	      0.00602860	      0.39166328	    -10.79179943	     -7.49999987	     15.95673585	     -3.10790596	      0.10220526	      5.27627305	      0.09208834	     -0.70716887	     -5.56959530	     -7.49999987	     -8.52599688	     -1.18969964	      3.46393147	     -8.00912740	    -15.12595660	     19.85231390	     44.80918734	     64.54053216	     -9.72916275	    -14.54066337	     20.62439240	     38.82253202	     59.02771683
      4.15416670	    -10.31276878	     -0.26171977	      3.05927758	      0.35042905	      0.89929164	     -0.04361999	     11.44525949	      2.67267773	     -5.42198289	      0.34156368	      0.00596141	      0.29703932	    -10.75009776	     -7.49999987	     16.08762360	     -3.07493233	      0.19532259	      5.62410446	      0.09815914	     -0.76370367	     -5.94711379	     -7.49999987	     -8.82067481	     -1.26195467	      3.33439576	     -7.87405460	    -15.06642434	     19.71466422	     44.66967530	     64.45153017	     -9.61064496	    -14.49348571	     20.81989559	     38.29687686	     58.85520640
      4.15833330	    -10.33338431	     -0.26640511	      3.12099939	      0.35027260	      0.89864131	     -0.04476801	     11.45279155	      2.62778444	     -5.58862098	      0.34722541	      0.00606023	      0.26963552	    -10.52500295	     -7.49999987	     16.19099786	     -3.05221899	      0.04796507	      5.75036409	      0.10036279	     -0.71813993	     -5.83158360	     -7.49999987	     -8.95649522	     -1.31582823	      3.35883624	     -7.92419595	    -15.12320533	     19.64431465	     44.73792375	     64.20156459	     -9.62584382	    -14.43445692	     20.85656996	     38.06326047	     58.71682515
      4.16250000	    -10.26550406	     -0.26849848	      3.16267062	      0.35271965	      0.90210366	     -0.04890794	     11.30050271	      2.51603755	     -5.70491974	      0.34951025	      0.00610010	      0.23772801	    -10.34968849	     -7.49999987	     16.11837668	     -2.97111368	      0.03782805	      5.81028563	      0.10140861	     -0.80185791	     -6.00446236	     -7.49999987	     -9.12256197	     -1.27927738	      3.21383498	     -7.88320325	    -15.17366815	     19.65901096	     44.48453680	     64.20983957	     -9.35182207	    -14.51315218	     21.22981561	     37.45862634	     58.56183353
      4.16666670	    -10.24061508	     -0.29819603	      3.19037906	      0.35369560	      0.89877493	     -0.04876437	     11.19046967	      2.45461019	     -5.89121492	      0.35038833	      0.00611543	      0.35478568	     -9.97247102	     -7.49999987	     16.03067329	     -2.92050432	      0.12142592	      5.79911304	      0.10121362	     -0.88704967	     -6.42602875	     -7.49999987	     -9.20167082	     -1.22652022	      3.09211486	     -7.95334729	    -15.28634168	     19.69024202	     44.50774391	     64.13883096	     -9.21523987	    -14.78860616	     21.74103583	     37.26004125	     58.42583617
      4.17083330	    -10.30885204	     -0.25393500	      3.18071290	      0.35382000	      0.89968065	     -0.04905127	     11.20292838	      2.31643764	     -5.85149910	      0.34899807	      0.00609117	      0.15645495	    -10.19685441	     -7.49999987	     16.02847876	     -2.77204189	      0.17575327	      5.71623177	      0.09976707	     -1.01605229	     -6.77416957	     -7.49999987	     -9.08661214	     -1.18265856	      3.07729178	     -7.97601889	    -15.42914113	     19.78814256	     44.39739140	     64.11640410	     -8.94245808	    -15.05778282	     22.45380247	     36.93115176	     58.29037676
